<svg width="259" height="122" viewBox="0 0 259 122" fill="none" xmlns="http://www.w3.org/2000/svg">
<g filter="url(#filter0_i_1036_48)">
<path d="M163.521 86.1896L163.387 84.9164C165.52 84.6922 167.745 83.6001 170.064 81.6401C172.44 79.7277 174.341 77.302 175.767 74.3631C177.194 71.4241 177.751 68.4692 177.439 65.4985C177.389 65.021 177.262 64.3103 177.057 63.3664L171.425 45.052L182.707 38.3148L184.352 56.9679C184.718 60.9521 185.52 63.5764 186.757 64.8409C187.995 66.1053 189.576 66.6364 191.5 66.4341C191.916 66.3904 192.334 66.8561 192.752 67.8312C193.164 68.7533 193.432 69.7979 193.554 70.965C193.677 72.1321 193.609 73.2387 193.351 74.2849C193.139 75.2726 192.851 75.7856 192.487 75.8239C190.927 75.9879 189.486 75.7907 188.165 75.2322C186.839 74.6208 185.782 73.8201 184.994 72.8301C184.478 77.9261 183.066 82.258 180.759 85.8259C178.452 89.3938 175.484 91.9316 171.856 93.4392L163.521 86.1896Z" fill="#43695A"/>
<path d="M192.476 75.825C192.112 75.8633 191.724 75.4214 191.311 74.4993C190.841 73.5296 190.545 72.4613 190.422 71.2942C190.3 70.1271 190.344 69.0497 190.556 68.062C190.762 67.0213 191.073 66.479 191.489 66.4353C192.426 66.3369 193.331 65.9467 194.206 65.2648C195.133 64.5773 195.821 63.62 196.271 62.3928C196.773 61.1601 196.911 59.7242 196.686 58.0852L194.197 42.6585L205.792 42.6466L206.893 53.8747C207.226 57.5406 208.111 60.2097 209.549 61.8822C211.034 63.4961 212.894 64.1856 215.131 63.9505C215.547 63.9067 215.964 64.3724 216.382 65.3476C216.795 66.2696 217.062 67.3142 217.185 68.4813C217.308 69.6484 217.24 70.755 216.982 71.8012C216.77 72.7889 216.482 73.3019 216.118 73.3402C213.725 73.5917 211.343 73.1984 208.973 72.1603C206.602 71.1222 204.886 69.8008 203.823 68.1962C202.283 70.5571 200.685 72.361 199.028 73.6078C197.365 74.8017 195.181 75.5407 192.476 75.825Z" fill="#43695A"/>
<path d="M216.097 73.3424C215.733 73.3806 215.345 72.9387 214.932 72.0166C214.462 71.047 214.166 69.9786 214.043 68.8115C213.92 67.6444 213.965 66.5671 214.177 65.5794C214.383 64.5386 214.694 63.9964 215.11 63.9526C217.139 63.7394 219.094 63.078 220.976 61.9684C222.91 60.8534 225.389 59.1715 228.413 56.9227C230.412 55.4254 232.124 54.1996 233.549 53.2453C235.02 52.2325 236.531 51.3496 238.082 50.5966C229.841 48.2446 223.002 47.2203 217.564 47.5237L216.787 46.8813L223.067 33.8315C226.932 37.0725 231.087 39.8271 235.532 42.0952C240.03 44.3579 245.01 45.2022 250.471 44.6282L253.202 44.3411L250.67 56.273C248.11 56.4348 245.745 56.9515 243.575 57.8232C241.4 58.6418 239.504 59.6188 237.888 60.7541C236.266 61.8363 234.241 63.3364 231.813 65.2543C228.655 67.7316 225.962 69.6238 223.732 70.9308C221.503 72.2378 218.958 73.0417 216.097 73.3424Z" fill="#43695A"/>
<path d="M166.162 38.4989L166.382 35.3382L172.315 31.7379C171.351 31.571 170.555 31.011 169.929 30.0577C169.55 29.4539 169.319 28.7542 169.235 27.9584C169.141 27.0566 169.259 26.1859 169.592 25.3465C169.976 24.5015 170.563 23.8231 171.35 23.3112C172.045 22.9164 172.73 22.6835 173.407 22.6124C174.291 22.5194 175.148 22.6707 175.979 23.0661C176.809 23.4616 177.471 24.0087 177.966 24.7077C178.408 25.4121 178.671 26.1622 178.754 26.9579C178.86 27.9659 178.727 28.9454 178.353 29.8964C178.032 30.842 177.48 31.5972 176.698 32.1621L166.636 39.2537L166.162 38.4989ZM172.691 28.5607C173.127 29.2121 173.684 29.5022 174.36 29.4311C174.672 29.3983 174.924 29.2914 175.115 29.1104C175.706 28.7265 175.962 28.1632 175.884 27.4205C175.828 26.89 175.602 26.4848 175.204 26.2047C174.853 25.8662 174.443 25.7215 173.975 25.7707C173.455 25.8254 173.058 26.0548 172.785 26.459C172.512 26.8631 172.401 27.3039 172.451 27.7813C172.473 27.9935 172.553 28.2533 172.691 28.5607Z" fill="#A39771"/>
<path d="M197.094 80.0054C196.258 81.0587 195.913 82.275 196.058 83.6543C196.197 84.9805 196.785 86.0719 197.822 86.9283C198.858 87.7848 200.027 88.1447 201.327 88.008C202.264 87.9096 203.094 87.5542 203.818 86.9417C204.543 86.3292 205.066 85.5501 205.387 84.6046C205.846 85.4681 206.494 86.1242 207.33 86.5726C208.166 87.0211 209.052 87.1962 209.988 87.0978C211.288 86.9611 212.357 86.3661 213.193 85.3128C214.081 84.254 214.455 83.0615 214.315 81.7353C214.176 80.4091 213.585 79.2912 212.543 78.3817C211.506 77.5252 210.312 77.168 208.959 77.3102C208.023 77.4086 207.193 77.764 206.468 78.3765C205.744 78.989 205.247 79.7653 204.977 80.7054C204.467 79.8473 203.793 79.1941 202.957 78.7456C202.121 78.2971 201.235 78.122 200.299 78.2205C198.998 78.3571 197.93 78.9521 197.094 80.0054Z" fill="#A39771"/>
<path d="M200.502 36.6307C198.993 36.7893 197.637 36.3955 196.433 35.4493C195.276 34.4446 194.616 33.1731 194.455 31.6346C194.293 30.0962 194.676 28.7418 195.605 27.5715C196.581 26.3426 197.822 25.6489 199.331 25.4904C200.839 25.3319 202.172 25.7549 203.33 26.7596C204.534 27.7058 205.216 28.9481 205.378 30.4865C205.534 31.9719 205.125 33.329 204.149 34.5579C203.226 35.7812 202.01 36.4722 200.502 36.6307ZM197.726 30.4863C197.787 31.0698 198.048 31.5519 198.509 31.9325C198.97 32.3132 199.486 32.4735 200.059 32.4133C200.631 32.3532 201.103 32.0891 201.474 31.6209C201.898 31.1473 202.079 30.6187 202.017 30.0352C201.95 29.3986 201.661 28.8927 201.148 28.5175C200.687 28.1369 200.171 27.9766 199.599 28.0368C199.026 28.0969 198.554 28.361 198.183 28.8292C197.811 29.2973 197.659 29.8497 197.726 30.4863Z" fill="#A39771"/>
<path d="M230.591 28.1354C229.708 29.2472 229.342 30.5193 229.493 31.9516C229.638 33.3309 230.257 34.4725 231.352 35.3766C232.446 36.2807 233.695 36.6589 235.1 36.5113C236.452 36.3691 237.57 35.7421 238.452 34.6303C239.386 33.5131 239.781 32.2648 239.636 30.8855C239.486 29.4532 238.837 28.2877 237.691 27.3891C236.597 26.4851 235.373 26.1041 234.021 26.2462C232.616 26.3939 231.473 27.0236 230.591 28.1354Z" fill="#A39771"/>
<path d="M224.885 22.109L225.397 19.4807L237.594 11.6821L237.979 15.3425L225.358 22.8638L224.885 22.109Z" fill="#A39771"/>
<path d="M8.66996 109.492L8.55287 108.378C10.6539 107.353 12.0992 105.592 12.8886 103.095C13.7356 100.646 13.9723 97.6445 13.5988 94.0902C13.3646 91.8621 12.9511 89.6797 12.3584 87.543C11.9831 85.9734 11.7508 84.7642 11.6616 83.9154C11.2936 80.4142 11.6557 77.1043 12.7479 73.986C13.8866 70.8091 15.6643 68.2086 18.0811 66.1847C20.5444 64.1022 23.4926 62.8805 26.9257 62.5197C30.2027 62.1752 33.2857 62.7362 36.1746 64.2025C39.0634 65.6688 41.4554 67.9115 43.3504 70.9304C45.2399 73.8963 46.3993 77.4217 46.8286 81.5064C47.1855 84.9016 46.7546 88.0577 45.5361 90.9748C44.3695 93.8865 42.5695 96.2747 40.1359 98.1395C37.7488 99.9459 34.9687 101.016 31.7957 101.349C27.6344 101.787 23.9542 101.047 20.755 99.1307C21.004 100.499 21.1648 101.528 21.2373 102.218C22.0346 109.804 20.0099 115.058 15.1632 117.981L8.66996 109.492ZM18.8483 83.2405C19.1047 85.6808 20.1545 87.6622 21.9974 89.1848C23.8924 90.702 26.0102 91.3376 28.351 91.0915C30.7438 90.8401 32.6832 89.778 34.1693 87.9055C35.6554 86.033 36.273 83.9031 36.0221 81.5159C35.76 79.0226 34.7075 77.0146 32.8646 75.492C31.0681 73.9109 28.9994 73.2433 26.6587 73.4893C24.2659 73.7408 22.3033 74.8321 20.7707 76.7631C19.2326 78.6411 18.5918 80.8002 18.8483 83.2405Z" fill="#43695A"/>
<path d="M73.4659 95.8432C70.0848 96.1986 67.2433 95.9341 64.9415 95.0496C62.6862 94.1067 60.7838 92.2685 59.2343 89.5351C57.7368 86.7962 56.5848 82.841 55.7783 77.6695L49.465 42.3706L60.993 37.2168L64.3025 76.2104C64.8639 83.553 67.5894 86.9674 72.479 86.4535C72.8431 86.4152 73.2341 86.8837 73.6522 87.8588C74.1167 88.7754 74.4102 89.8173 74.5329 90.9843C74.65 92.0984 74.5794 93.1785 74.3213 94.2247C74.1151 95.2654 73.83 95.8049 73.4659 95.8432Z" fill="#43695A"/>
<path d="M73.4908 95.8406C73.1267 95.8789 72.7384 95.437 72.326 94.5149C71.8559 93.5452 71.5596 92.4768 71.4369 91.3098C71.3142 90.1427 71.3588 89.0653 71.5705 88.0776C71.7767 87.0369 72.0878 86.4946 72.5039 86.4509C74.8967 86.1994 76.8324 85.3523 78.3111 83.9097C79.8363 82.4085 80.3898 80.4194 79.9717 77.9425L76.3622 60.8636L88.0157 56.9034L90.0704 77.2029C90.4105 80.4389 89.9081 83.4148 88.5632 86.1307C87.2128 88.7935 85.2083 90.9886 82.55 92.7162C79.8916 94.4438 76.8719 95.4852 73.4908 95.8406Z" fill="#43695A"/>
<path d="M115.263 91.4502C106.68 92.3523 101.874 89.9075 100.845 84.1158L104.004 80.4047C104.567 81.2573 105.677 81.8111 107.334 82.066C108.986 82.2678 111.32 82.2102 114.337 81.8931C115.638 81.7564 117.225 81.3482 119.099 80.6685C120.968 79.9357 122.587 78.827 123.956 77.3422C125.326 75.8574 125.783 73.9589 125.33 71.6466L119.123 38.1065L130.375 30.3267L133.155 69.5369C133.623 75.4948 132.359 80.4817 129.363 84.4974C126.361 88.4601 121.661 90.7777 115.263 91.4502ZM103.092 46.9517L116.942 66.8965L117.843 78.4675L117.104 78.9474L94.0772 54.255L103.092 46.9517Z" fill="#43695A"/>
<path d="M136.922 32.374L148.455 28.0241L151.815 74.2532L146.518 86.1537L145.582 86.2522L136.922 32.374Z" fill="#43695A"/>
<path d="M92.0017 26.4215L92.5143 23.7932L104.711 15.9946L105.096 19.655L92.4755 27.1763L92.0017 26.4215Z" fill="#A39771"/>
<path d="M27.9066 118.784L28.4192 116.156L40.6075 108.278L41.0006 112.018L28.3803 119.539L27.9066 118.784Z" fill="#A39771"/>
<path d="M93.7192 48.0585L93.4207 42.576L97.9865 41.0935L97.9761 40.9944C96.6462 40.9671 95.4696 40.4892 94.4462 39.5608C93.4534 38.6292 92.877 37.4032 92.7172 35.8828C92.5609 34.3955 92.8541 32.9277 93.5969 31.4795C94.3361 29.9983 95.3644 28.7707 96.6816 27.7968C98.0258 26.7867 99.4153 26.2062 100.85 26.0554C101.888 25.9463 102.826 26.0649 103.665 26.4112C104.5 26.7244 104.976 27.1423 105.093 27.6647C104.921 28.3844 104.688 29.2444 104.392 30.2447C104.096 31.2449 103.835 31.9908 103.608 32.4824L103.115 32.6345C102.065 31.7424 100.929 31.3605 99.7082 31.4888C98.6399 31.6011 97.7589 32.0279 97.0653 32.7691C96.3682 33.4773 96.0579 34.195 96.1343 34.9222C96.2003 35.5502 96.6069 36.0421 97.3541 36.398C98.1013 36.7539 98.853 36.8587 99.6091 36.7124L106.018 35.5877C106.323 35.5556 106.59 35.5944 106.817 35.7042C107.072 35.7777 107.192 35.8986 107.179 36.0671L106.631 40.5359L94.2437 48.2039L93.7192 48.0585Z" fill="#A39771"/>
<path d="M72.2781 47.5358C71.3957 48.6476 71.0298 49.9197 71.1803 51.352C71.3309 52.7843 71.9533 53.9525 73.0475 54.8566C74.1418 55.7606 75.3912 56.1389 76.7956 55.9912C78.148 55.8491 79.2654 55.2221 80.1478 54.1103C81.0822 52.993 81.4741 51.7182 81.3236 50.2859C81.173 48.8536 80.5246 47.6881 79.3784 46.7895C78.2841 45.8854 77.0608 45.5045 75.7083 45.6466C74.3039 45.7943 73.1605 46.424 72.2781 47.5358Z" fill="#A39771"/>
<path d="M68.0076 40.7438L68.5202 38.1154L74.6185 34.2161L80.7169 30.3168L81.1016 33.9772L68.4813 41.4985L68.0076 40.7438Z" fill="#A39771"/>
</g>
<defs>
<filter id="filter0_i_1036_48" x="8.55273" y="11.6816" width="244.65" height="108.857" filterUnits="userSpaceOnUse" color-interpolation-filters="sRGB">
<feFlood flood-opacity="0" result="BackgroundImageFix"/>
<feBlend mode="normal" in="SourceGraphic" in2="BackgroundImageFix" result="shape"/>
<feColorMatrix in="SourceAlpha" type="matrix" values="0 0 0 0 0 0 0 0 0 0 0 0 0 0 0 0 0 0 127 0" result="hardAlpha"/>
<feOffset dy="4"/>
<feGaussianBlur stdDeviation="0.5"/>
<feComposite in2="hardAlpha" operator="arithmetic" k2="-1" k3="1"/>
<feColorMatrix type="matrix" values="0 0 0 0 0.0583333 0 0 0 0 0.0583333 0 0 0 0 0.0583333 0 0 0 0.4 0"/>
<feBlend mode="normal" in2="shape" result="effect1_innerShadow_1036_48"/>
</filter>
</defs>
</svg>
