<svg width="259" height="121" viewBox="0 0 259 121" fill="none" xmlns="http://www.w3.org/2000/svg">
<path d="M163.521 85.3224L163.387 84.0492C165.52 83.825 167.745 82.733 170.064 80.773C172.44 78.8605 174.341 76.4348 175.767 73.4959C177.194 70.5569 177.751 67.602 177.439 64.6313C177.389 64.1538 177.262 63.4431 177.057 62.4992L171.425 44.1848L182.707 37.4477L184.352 56.1007C184.718 60.0849 185.52 62.7092 186.757 63.9737C187.995 65.2381 189.576 65.7692 191.5 65.567C191.916 65.5232 192.334 65.9889 192.752 66.964C193.164 67.8861 193.432 68.9307 193.554 70.0978C193.677 71.2649 193.609 72.3715 193.351 73.4177C193.139 74.4054 192.851 74.9184 192.487 74.9567C190.927 75.1207 189.486 74.9235 188.165 74.365C186.839 73.7536 185.782 72.9529 184.994 71.963C184.478 77.0589 183.066 81.3909 180.759 84.9587C178.452 88.5266 175.484 91.0644 171.856 92.5721L163.521 85.3224Z" fill="#F2F1DF"/>
<path d="M192.476 74.9578C192.112 74.9961 191.724 74.5542 191.311 73.6321C190.841 72.6624 190.545 71.5941 190.422 70.427C190.3 69.2599 190.344 68.1825 190.556 67.1948C190.762 66.1541 191.073 65.6118 191.489 65.5681C192.426 65.4697 193.331 65.0795 194.206 64.3976C195.133 63.7102 195.821 62.7528 196.271 61.5256C196.773 60.2929 196.911 58.857 196.686 57.218L194.197 41.7913L205.792 41.7794L206.893 53.0075C207.226 56.6734 208.111 59.3425 209.549 61.015C211.034 62.6289 212.894 63.3184 215.131 63.0833C215.547 63.0395 215.964 63.5052 216.382 64.4804C216.795 65.4025 217.062 66.447 217.185 67.6141C217.308 68.7812 217.24 69.8878 216.982 70.9341C216.77 71.9217 216.482 72.4347 216.118 72.473C213.725 72.7245 211.343 72.3312 208.973 71.2931C206.602 70.255 204.886 68.9336 203.823 67.329C202.283 69.6899 200.685 71.4938 199.028 72.7407C197.365 73.9345 195.181 74.6735 192.476 74.9578Z" fill="#F2F1DF"/>
<path d="M216.097 72.4752C215.733 72.5134 215.345 72.0715 214.932 71.1495C214.462 70.1798 214.166 69.1114 214.043 67.9443C213.92 66.7772 213.965 65.6999 214.177 64.7122C214.383 63.6714 214.694 63.1292 215.11 63.0855C217.139 62.8722 219.094 62.2108 220.976 61.1012C222.91 59.9862 225.389 58.3043 228.413 56.0556C230.412 54.5582 232.124 53.3324 233.549 52.3781C235.02 51.3653 236.531 50.4824 238.082 49.7294C229.841 47.3774 223.002 46.3531 217.564 46.6565L216.787 46.0141L223.067 32.9643C226.932 36.2053 231.087 38.9599 235.532 41.2281C240.03 43.4907 245.01 44.335 250.471 43.761L253.202 43.474L250.67 55.4058C248.11 55.5676 245.745 56.0843 243.575 56.956C241.4 57.7746 239.504 58.7516 237.888 59.8869C236.266 60.9692 234.241 62.4692 231.813 64.3871C228.655 66.8644 225.962 68.7566 223.732 70.0636C221.503 71.3706 218.958 72.1745 216.097 72.4752Z" fill="#F2F1DF"/>
<path d="M166.162 37.6318L166.382 34.471L172.315 30.8707C171.351 30.7038 170.555 30.1438 169.929 29.1905C169.55 28.5867 169.319 27.887 169.235 27.0912C169.141 26.1894 169.259 25.3187 169.592 24.4793C169.976 23.6343 170.563 22.9559 171.35 22.4441C172.045 22.0492 172.73 21.8163 173.407 21.7452C174.291 21.6522 175.148 21.8035 175.979 22.1989C176.809 22.5944 177.471 23.1416 177.966 23.8405C178.408 24.5449 178.671 25.295 178.754 26.0908C178.86 27.0987 178.727 28.0782 178.353 29.0292C178.032 29.9748 177.48 30.73 176.698 31.2949L166.636 38.3865L166.162 37.6318ZM172.691 27.6935C173.127 28.3449 173.684 28.635 174.36 28.5639C174.672 28.5311 174.924 28.4242 175.115 28.2432C175.706 27.8593 175.962 27.296 175.884 26.5533C175.828 26.0228 175.602 25.6176 175.204 25.3376C174.853 24.999 174.443 24.8543 173.975 24.9035C173.455 24.9582 173.058 25.1876 172.785 25.5918C172.512 25.9959 172.401 26.4367 172.451 26.9142C172.473 27.1264 172.553 27.3861 172.691 27.6935Z" fill="#A39771"/>
<path d="M197.094 79.1382C196.258 80.1915 195.913 81.4078 196.058 82.7871C196.197 84.1133 196.785 85.2047 197.822 86.0612C198.858 86.9176 200.027 87.2775 201.327 87.1408C202.264 87.0424 203.094 86.687 203.818 86.0745C204.543 85.462 205.066 84.683 205.387 83.7374C205.846 84.6009 206.494 85.257 207.33 85.7055C208.166 86.1539 209.052 86.329 209.988 86.2306C211.288 86.0939 212.357 85.4989 213.193 84.4456C214.081 83.3868 214.455 82.1943 214.315 80.8681C214.176 79.5419 213.585 78.424 212.543 77.5145C211.506 76.658 210.312 76.3008 208.959 76.443C208.023 76.5414 207.193 76.8968 206.468 77.5093C205.744 78.1218 205.247 78.8982 204.977 79.8383C204.467 78.9802 203.793 78.3269 202.957 77.8784C202.121 77.4299 201.235 77.2549 200.299 77.3533C198.998 77.4899 197.93 78.0849 197.094 79.1382Z" fill="#A39771"/>
<path d="M200.502 35.7635C198.993 35.9221 197.637 35.5283 196.433 34.5821C195.276 33.5774 194.616 32.3059 194.455 30.7674C194.293 29.229 194.676 27.8746 195.605 26.7043C196.581 25.4755 197.822 24.7818 199.331 24.6232C200.839 24.4647 202.172 24.8877 203.33 25.8924C204.534 26.8386 205.216 28.0809 205.378 29.6193C205.534 31.1047 205.125 32.4618 204.149 33.6907C203.226 34.914 202.01 35.605 200.502 35.7635ZM197.726 29.6191C197.787 30.2026 198.048 30.6847 198.509 31.0654C198.97 31.446 199.486 31.6063 200.059 31.5461C200.631 31.486 201.103 31.2219 201.474 30.7537C201.898 30.2801 202.079 29.7516 202.017 29.168C201.95 28.5314 201.661 28.0255 201.148 27.6504C200.687 27.2697 200.171 27.1094 199.599 27.1696C199.026 27.2297 198.554 27.4939 198.183 27.962C197.811 28.4301 197.659 28.9825 197.726 29.6191Z" fill="#A39771"/>
<path d="M230.591 27.2682C229.708 28.38 229.342 29.6521 229.493 31.0844C229.638 32.4637 230.257 33.6054 231.352 34.5094C232.446 35.4135 233.695 35.7917 235.1 35.6441C236.452 35.5019 237.57 34.875 238.452 33.7631C239.386 32.6459 239.781 31.3976 239.636 30.0183C239.486 28.586 238.837 27.4205 237.691 26.5219C236.597 25.6179 235.373 25.2369 234.021 25.3791C232.616 25.5267 231.473 26.1564 230.591 27.2682Z" fill="#A39771"/>
<path d="M224.885 21.2418L225.397 18.6135L237.594 10.8149L237.979 14.4753L225.358 21.9966L224.885 21.2418Z" fill="#A39771"/>
<path d="M8.66996 108.625L8.55287 107.511C10.6539 106.485 12.0992 104.724 12.8886 102.228C13.7356 99.779 13.9723 96.7773 13.5988 93.223C13.3646 90.995 12.9511 88.8126 12.3584 86.6758C11.9831 85.1062 11.7508 83.897 11.6616 83.0482C11.2936 79.547 11.6557 76.2372 12.7479 73.1188C13.8866 69.9419 15.6643 67.3415 18.0811 65.3175C20.5444 63.235 23.4926 62.0133 26.9257 61.6525C30.2027 61.308 33.2857 61.869 36.1746 63.3353C39.0634 64.8017 41.4554 67.0443 43.3504 70.0632C45.2399 73.0291 46.3993 76.5545 46.8286 80.6393C47.1855 84.0344 46.7546 87.1905 45.5361 90.1076C44.3695 93.0193 42.5695 95.4075 40.1359 97.2724C37.7488 99.0787 34.9687 100.149 31.7957 100.482C27.6344 100.919 23.9542 100.18 20.755 98.2635C21.004 99.6318 21.1648 100.661 21.2373 101.35C22.0346 108.936 20.0099 114.191 15.1632 117.114L8.66996 108.625ZM18.8483 82.3733C19.1047 84.8136 20.1545 86.795 21.9974 88.3176C23.8924 89.8348 26.0102 90.4704 28.351 90.2244C30.7438 89.9729 32.6832 88.9109 34.1693 87.0383C35.6554 85.1658 36.273 83.0359 36.0221 80.6487C35.76 78.1554 34.7075 76.1474 32.8646 74.6248C31.0681 73.0437 28.9994 72.3761 26.6587 72.6221C24.2659 72.8736 22.3033 73.9649 20.7707 75.8959C19.2326 77.7739 18.5918 79.933 18.8483 82.3733Z" fill="#F2F1DF"/>
<path d="M73.4659 94.976C70.0848 95.3314 67.2433 95.0669 64.9415 94.1825C62.6862 93.2395 60.7838 91.4013 59.2343 88.6679C57.7368 85.929 56.5848 81.9738 55.7783 76.8023L49.465 41.5034L60.993 36.3496L64.3025 75.3432C64.8639 82.6859 67.5894 86.1002 72.479 85.5863C72.8431 85.548 73.2341 86.0165 73.6522 86.9916C74.1167 87.9082 74.4102 88.9501 74.5329 90.1172C74.65 91.2312 74.5794 92.3113 74.3213 93.3575C74.1151 94.3983 73.83 94.9378 73.4659 94.976Z" fill="#F2F1DF"/>
<path d="M73.4908 94.9734C73.1267 95.0117 72.7384 94.5698 72.326 93.6477C71.8559 92.678 71.5596 91.6096 71.4369 90.4426C71.3142 89.2755 71.3588 88.1981 71.5705 87.2104C71.7767 86.1697 72.0878 85.6274 72.5039 85.5837C74.8967 85.3322 76.8324 84.4851 78.3111 83.0425C79.8363 81.5413 80.3898 79.5522 79.9717 77.0753L76.3622 59.9964L88.0157 56.0362L90.0704 76.3357C90.4105 79.5717 89.9081 82.5476 88.5632 85.2635C87.2128 87.9263 85.2083 90.1215 82.55 91.849C79.8916 93.5766 76.8719 94.618 73.4908 94.9734Z" fill="#F2F1DF"/>
<path d="M115.263 90.583C106.68 91.4851 101.874 89.0403 100.845 83.2486L104.004 79.5375C104.567 80.3901 105.677 80.9439 107.334 81.1988C108.986 81.4006 111.32 81.343 114.337 81.0259C115.638 80.8892 117.225 80.481 119.099 79.8013C120.968 79.0685 122.587 77.9598 123.956 76.475C125.326 74.9902 125.783 73.0917 125.33 70.7794L119.123 37.2393L130.375 29.4596L133.155 68.6697C133.623 74.6276 132.359 79.6145 129.363 83.6302C126.361 87.5929 121.661 89.9105 115.263 90.583ZM103.092 46.0846L116.942 66.0293L117.843 77.6003L117.104 78.0802L94.0772 53.3878L103.092 46.0846Z" fill="#F2F1DF"/>
<path d="M136.922 31.5068L148.455 27.1569L151.815 73.386L146.518 85.2866L145.582 85.385L136.922 31.5068Z" fill="#F2F1DF"/>
<path d="M92.0017 25.5543L92.5143 22.926L104.711 15.1274L105.096 18.7878L92.4755 26.3091L92.0017 25.5543Z" fill="#A39771"/>
<path d="M27.9066 117.917L28.4192 115.289L40.6075 107.411L41.0006 111.151L28.3803 118.672L27.9066 117.917Z" fill="#A39771"/>
<path d="M93.7192 47.1913L93.4207 41.7088L97.9865 40.2263L97.9761 40.1272C96.6462 40.0999 95.4696 39.622 94.4462 38.6936C93.4534 37.7621 92.877 36.5361 92.7172 35.0156C92.5609 33.5283 92.8541 32.0605 93.5969 30.6123C94.3361 29.1311 95.3644 27.9035 96.6816 26.9296C98.0258 25.9195 99.4153 25.339 100.85 25.1882C101.888 25.0792 102.826 25.1978 103.665 25.544C104.5 25.8572 104.976 26.2751 105.093 26.7975C104.921 27.5173 104.688 28.3773 104.392 29.3775C104.096 30.3777 103.835 31.1236 103.608 31.6152L103.115 31.7673C102.065 30.8752 100.929 30.4933 99.7082 30.6216C98.6399 30.7339 97.7589 31.1607 97.0653 31.9019C96.3682 32.6101 96.0579 33.3278 96.1343 34.055C96.2003 34.683 96.6069 35.1749 97.3541 35.5308C98.1013 35.8867 98.853 35.9915 99.6091 35.8452L106.018 34.7205C106.323 34.6884 106.59 34.7272 106.817 34.837C107.072 34.9105 107.192 35.0314 107.179 35.1999L106.631 39.6687L94.2437 47.3367L93.7192 47.1913Z" fill="#A39771"/>
<path d="M72.2781 46.6686C71.3957 47.7804 71.0298 49.0525 71.1803 50.4848C71.3309 51.9171 71.9533 53.0853 73.0475 53.9894C74.1418 54.8934 75.3912 55.2717 76.7956 55.1241C78.148 54.9819 79.2654 54.3549 80.1478 53.2431C81.0822 52.1258 81.4741 50.851 81.3236 49.4187C81.173 47.9864 80.5246 46.8209 79.3784 45.9223C78.2841 45.0183 77.0608 44.6373 75.7083 44.7795C74.3039 44.9271 73.1605 45.5568 72.2781 46.6686Z" fill="#A39771"/>
<path d="M68.0076 39.8766L68.5202 37.2482L74.6185 33.3489L80.7169 29.4496L81.1016 33.11L68.4813 40.6313L68.0076 39.8766Z" fill="#A39771"/>
</svg>
